# xmcd
#
# Track frame offsets:
#	150
#	32019
#	47316
#	78261
#	101798
#	133010
#	171534
#
# Disc length: 2769 seconds
#
# Revision: 4
# Processed by: cddbd v1.5.2PL0 Copyright (c) Steve Scherf et al.
# Submitted via: EasyCDDAExtractor 11.1.0.1
#
DISCID=540acf07
DTITLE=Marillion - Fugazi
DYEAR=1984
DGENRE=Progressive Rock
TTITLE0=Assassing
TTITLE1=Punch and Judy
TTITLE2=Jigsaw
TTITLE3=Emerald Lies
TTITLE4=She Chameleon
TTITLE5=Incubus
TTITLE6=Fugazi
EXTD=
EXTT0=
EXTT1=
EXTT2=
EXTT3=
EXTT4=
EXTT5=
EXTT6=
PLAYORDER=
